<svg width="15" height="16" viewBox="0 0 15 16" fill="none" xmlns="http://www.w3.org/2000/svg">
<g id="vuesax/bold/archive-tick">
<g id="archive-tick">
<path id="Vector" d="M6.15932 12.1115L6.14817 12.1169L6.1373 12.123L2.88554 13.9288C2.88534 13.9289 2.88514 13.929 2.88494 13.9291C2.4548 14.1658 2.17339 14.1253 2.02878 14.0401C1.88449 13.9551 1.71338 13.7296 1.71338 13.2401V3.84779C1.71574 3.29838 1.93504 2.77213 2.32355 2.38361C2.71207 1.9951 3.23832 1.7758 3.78773 1.77344H10.2124C10.7627 1.77563 11.2899 1.99484 11.6796 2.38346C12.0691 2.77194 12.2896 3.29834 12.2934 3.8484V13.2401C12.2934 13.7343 12.1214 13.9606 11.978 14.0451C11.8348 14.1294 11.5543 14.17 11.1233 13.93L11.1228 13.9296L7.86946 12.123L7.85859 12.1169L7.84744 12.1115C7.58483 11.9823 7.29606 11.9151 7.00338 11.9151C6.7107 11.9151 6.42193 11.9823 6.15932 12.1115Z" stroke="black"/>
</g>
</g>
</svg>
