<svg width="20" height="20" viewBox="0 0 20 20" fill="none" xmlns="http://www.w3.org/2000/svg">
<path d="M12.5003 18.9577H7.50032C2.97533 18.9577 1.04199 17.0243 1.04199 12.4993V7.49935C1.04199 2.97435 2.97533 1.04102 7.50032 1.04102H12.5003C17.0253 1.04102 18.9587 2.97435 18.9587 7.49935V12.4993C18.9587 17.0243 17.0253 18.9577 12.5003 18.9577ZM7.50032 2.29102C3.65866 2.29102 2.29199 3.65768 2.29199 7.49935V12.4993C2.29199 16.341 3.65866 17.7077 7.50032 17.7077H12.5003C16.342 17.7077 17.7087 16.341 17.7087 12.4993V7.49935C17.7087 3.65768 16.342 2.29102 12.5003 2.29102H7.50032Z" fill="#FFBF23"/>
<path d="M8.95007 13.5668C8.79174 13.5668 8.6334 13.5085 8.5084 13.3835C8.26673 13.1418 8.26673 12.7418 8.5084 12.5002L11.0084 10.0002L8.5084 7.50013C8.26673 7.25846 8.26673 6.85846 8.5084 6.6168C8.75007 6.37513 9.15007 6.37513 9.39174 6.6168L12.3334 9.5585C12.5751 9.80016 12.5751 10.2002 12.3334 10.4418L9.39174 13.3835C9.26674 13.5085 9.10841 13.5668 8.95007 13.5668Z" fill="#FFBF23"/>
</svg>
