<svg width="20" height="20" viewBox="0 0 20 20" fill="none" xmlns="http://www.w3.org/2000/svg">
<path d="M7.49968 1.04232L12.4997 1.04232C17.0247 1.04232 18.958 2.97565 18.958 7.50065L18.958 12.5007C18.958 17.0257 17.0247 18.959 12.4997 18.959L7.49968 18.959C2.97468 18.959 1.04134 17.0257 1.04134 12.5007L1.04134 7.50065C1.04134 2.97566 2.97468 1.04232 7.49968 1.04232ZM12.4997 17.709C16.3413 17.709 17.708 16.3423 17.708 12.5007L17.708 7.50065C17.708 3.65899 16.3413 2.29232 12.4997 2.29232L7.49968 2.29232C3.65801 2.29232 2.29134 3.65899 2.29134 7.50065L2.29134 12.5007C2.29134 16.3423 3.65801 17.709 7.49968 17.709L12.4997 17.709Z" fill="#FFBF23"/>
<path d="M11.0499 6.43317C11.2083 6.43317 11.3666 6.4915 11.4916 6.6165C11.7333 6.85817 11.7333 7.25817 11.4916 7.49984L8.99159 9.99984L11.4916 12.4999C11.7333 12.7415 11.7333 13.1415 11.4916 13.3832C11.2499 13.6249 10.8499 13.6249 10.6083 13.3832L7.6666 10.4415C7.42493 10.1998 7.42493 9.79984 7.6666 9.55817L10.6083 6.6165C10.7333 6.4915 10.8916 6.43317 11.0499 6.43317Z" fill="#FFBF23"/>
</svg>
