<svg width="24" height="24" viewBox="0 0 24 24" fill="none" xmlns="http://www.w3.org/2000/svg">
<g clip-path="url(#clip0_562_3081)">
<path d="M13.6301 15.7198C13.6301 16.0422 13.5345 16.3574 13.3554 16.6254C13.1763 16.8935 12.9217 17.1024 12.6239 17.2258C12.326 17.3491 11.9983 17.3814 11.6821 17.3185C11.3659 17.2556 11.0755 17.1004 10.8475 16.8724C10.6196 16.6445 10.4643 16.354 10.4014 16.0378C10.3385 15.7217 10.3708 15.3939 10.4942 15.0961C10.6176 14.7982 10.8265 14.5437 11.0945 14.3645C11.3626 14.1854 11.6777 14.0898 12.0001 14.0898C12.4324 14.0898 12.847 14.2616 13.1527 14.5673C13.4584 14.8729 13.6301 15.2875 13.6301 15.7198Z" fill="#292D32"/>
<path d="M16.65 9.44H7.12V8.28C7.12 5.35 7.95 3.4 12 3.4C16.33 3.4 16.88 5.51 16.88 7.35C16.88 7.53565 16.9537 7.7137 17.085 7.84497C17.2163 7.97625 17.3943 8.05 17.58 8.05C17.7657 8.05 17.9437 7.97625 18.075 7.84497C18.2062 7.7137 18.28 7.53565 18.28 7.35C18.28 3.8 16.17 2 12 2C6.37 2 5.72 5.58 5.72 8.28V9.53C2.92 9.88 2 11.3 2 14.79V16.65C2 20.75 3.25 22 7.35 22H16.65C20.75 22 22 20.75 22 16.65V14.79C22 10.69 20.75 9.44 16.65 9.44ZM12 18.74C11.4027 18.74 10.8188 18.5629 10.3222 18.231C9.82554 17.8992 9.43846 17.4275 9.20988 16.8757C8.98131 16.3239 8.9215 15.7167 9.03803 15.1308C9.15456 14.545 9.44218 14.0069 9.86454 13.5845C10.2869 13.1622 10.825 12.8746 11.4108 12.758C11.9967 12.6415 12.6039 12.7013 13.1557 12.9299C13.7075 13.1585 14.1792 13.5455 14.511 14.0422C14.8429 14.5388 15.02 15.1227 15.02 15.72C15.0189 16.5206 14.7004 17.2882 14.1343 17.8543C13.5682 18.4204 12.8006 18.7389 12 18.74Z" fill="#292D32"/>
</g>
<defs>
<clipPath id="clip0_562_3081">
<rect width="24" height="24" fill="white"/>
</clipPath>
</defs>
</svg>
