<svg width="24" height="24" viewBox="0 0 24 24" fill="none" xmlns="http://www.w3.org/2000/svg">
<g clip-path="url(#clip0_562_3050)">
<path d="M17.5304 7.76978C17.4607 7.75978 17.39 7.75978 17.3204 7.76978C16.5609 7.74226 15.8425 7.41767 15.3198 6.86584C14.7972 6.31402 14.5121 5.57908 14.5259 4.81917C14.5396 4.05926 14.8512 3.33513 15.3934 2.80259C15.9357 2.27005 16.6654 1.97168 17.4254 1.97168C18.1854 1.97168 18.9151 2.27005 19.4574 2.80259C19.9996 3.33513 20.3112 4.05926 20.3249 4.81917C20.3387 5.57908 20.0536 6.31402 19.5309 6.86584C19.0083 7.41767 18.2899 7.74226 17.5304 7.76978Z" fill="black"/>
<path d="M20.7896 14.7001C19.5502 15.4554 18.0854 15.7526 16.6496 15.5401C17.0352 14.6956 17.2364 13.7785 17.2396 12.8501C17.2473 11.8861 17.0281 10.9337 16.5996 10.0701C18.0472 9.8474 19.5269 10.1412 20.7796 10.9001C21.1345 11.0742 21.4337 11.3441 21.6432 11.6793C21.8528 12.0145 21.9644 12.4017 21.9654 12.797C21.9665 13.1923 21.8569 13.58 21.6491 13.9164C21.4413 14.2527 21.1436 14.5241 20.7896 14.7001Z" fill="black"/>
<path d="M6.44016 7.77004C6.5098 7.76005 6.58051 7.76005 6.65016 7.77004C7.40571 7.74253 8.12027 7.41951 8.64009 6.87051C9.15991 6.3215 9.44344 5.59037 9.42968 4.83444C9.41592 4.07851 9.10596 3.35819 8.56651 2.82847C8.02705 2.29874 7.30121 2.00195 6.54516 2.00195C5.7891 2.00195 5.06326 2.29874 4.5238 2.82847C3.98435 3.35819 3.6744 4.07851 3.66063 4.83444C3.64687 5.59037 3.93041 6.3215 4.45022 6.87051C4.97004 7.41951 5.6846 7.74253 6.44016 7.77004Z" fill="black"/>
<path d="M6.54978 12.8499C6.54813 13.7885 6.74939 14.7164 7.13978 15.5699C5.76064 15.7365 4.36558 15.4336 3.17978 14.7099C2.82421 14.5346 2.5248 14.2632 2.31544 13.9266C2.10608 13.5899 1.99512 13.2014 1.99512 12.8049C1.99512 12.4085 2.10608 12.0199 2.31544 11.6833C2.5248 11.3466 2.82421 11.0752 3.17978 10.8999C4.37685 10.1679 5.7885 9.86795 7.17978 10.0499C6.75912 10.923 6.54363 11.8808 6.54978 12.8499Z" fill="black"/>
<path d="M12.12 15.8702C12.0337 15.8602 11.9464 15.8602 11.86 15.8702C10.9569 15.8362 10.1033 15.4491 9.48255 14.7922C8.86182 14.1354 8.52362 13.2612 8.54065 12.3576C8.55768 11.4541 8.92858 10.5932 9.57362 9.96026C10.2186 9.32727 11.0863 8.97266 11.99 8.97266C12.8938 8.97266 13.7614 9.32727 14.4065 9.96026C15.0515 10.5932 15.4224 11.4541 15.4394 12.3576C15.4565 13.2612 15.1183 14.1354 14.4975 14.7922C13.8768 15.4491 13.0231 15.8362 12.12 15.8702Z" fill="black"/>
<path d="M8.86868 17.9401C8.52833 18.1108 8.24217 18.3729 8.0422 18.6969C7.84223 19.021 7.73633 19.3943 7.73633 19.7751C7.73633 20.1559 7.84223 20.5291 8.0422 20.8532C8.24217 21.1773 8.52833 21.4393 8.86868 21.6101C9.81517 22.1745 10.8967 22.4725 11.9987 22.4725C13.1007 22.4725 14.1822 22.1745 15.1287 21.6101C15.469 21.4393 15.7552 21.1773 15.9552 20.8532C16.1551 20.5291 16.261 20.1559 16.261 19.7751C16.261 19.3943 16.1551 19.021 15.9552 18.6969C15.7552 18.3729 15.469 18.1108 15.1287 17.9401C14.1822 17.3756 13.1007 17.0776 11.9987 17.0776C10.8967 17.0776 9.81517 17.3756 8.86868 17.9401Z" fill="black"/>
</g>
<defs>
<clipPath id="clip0_562_3050">
<rect width="24" height="24" fill="white"/>
</clipPath>
</defs>
</svg>
