<svg width="40" height="40" viewBox="0 0 40 40" fill="none" xmlns="http://www.w3.org/2000/svg">
<g clip-path="url(#clip0_562_2996)">
<path opacity="0.4" d="M15.0003 3.33325C12.9246 3.34058 10.9349 4.16351 9.4605 5.62456C7.98608 7.0856 7.14504 9.06765 7.1188 11.1432C7.09255 13.2187 7.8832 15.2214 9.32021 16.7193C10.7572 18.2171 12.7254 19.0901 14.8003 19.1499C14.9219 19.1332 15.0453 19.1332 15.1669 19.1499H15.2836C17.3669 19.0917 19.343 18.2136 20.7826 16.7065C22.2221 15.1994 23.0087 13.1851 22.9713 11.1013C22.934 9.01755 22.0758 7.03269 20.5832 5.57813C19.0906 4.12356 17.0843 3.31683 15.0003 3.33325Z" fill="black"/>
<path d="M23.4666 23.5833C20.9076 22.0615 17.9855 21.2583 15.0083 21.2583C12.031 21.2583 9.1089 22.0615 6.54994 23.5833C5.59564 24.1339 4.7949 24.9153 4.22123 25.8559C3.64755 26.7965 3.3193 27.8661 3.2666 28.9666C3.31806 30.0609 3.64429 31.1247 4.21521 32.0597C4.78612 32.9947 5.58333 33.7709 6.53327 34.3166C9.06735 35.9056 12.0094 36.7222 14.9999 36.6666C17.9905 36.7222 20.9325 35.9056 23.4666 34.3166C24.418 33.7642 25.2156 32.9819 25.7863 32.0414C26.357 31.1009 26.6826 30.0322 26.7333 28.9333C26.6783 27.8398 26.3507 26.7774 25.7801 25.843C25.2095 24.9085 24.4142 24.1317 23.4666 23.5833Z" fill="black"/>
<path opacity="0.4" d="M33.3166 12.2334C33.4539 13.7753 32.9865 15.3102 32.0131 16.5137C31.0396 17.7173 29.6364 18.4953 28.0999 18.6834H28.0166C27.9209 18.677 27.8249 18.6883 27.7333 18.7168C26.2023 18.8136 24.6927 18.3183 23.5166 17.3334C24.3955 16.5436 25.0788 15.5603 25.5126 14.4613C25.9465 13.3622 26.119 12.1773 26.0166 11.0001C25.9022 9.70013 25.4607 8.45024 24.7333 7.36678C25.6065 6.94108 26.5702 6.73441 27.5412 6.76461C28.5122 6.79482 29.4612 7.06099 30.3063 7.54014C31.1514 8.01929 31.8671 8.697 32.3916 9.51471C32.916 10.3324 33.2335 11.2655 33.3166 12.2334Z" fill="black"/>
<path d="M36.6497 27.6498C36.5416 28.5024 36.2188 29.3136 35.7116 30.0074C35.2044 30.7012 34.5294 31.2548 33.7497 31.6165C31.9447 32.5476 29.9293 32.9955 27.8997 32.9165C29.0434 31.9322 29.7703 30.55 29.9331 29.0498C29.9769 27.953 29.7452 26.8628 29.2589 25.8787C28.7727 24.8946 28.0475 24.048 27.1497 23.4165C25.992 22.5167 24.6979 21.8078 23.3164 21.3165C25.2043 20.7791 27.1893 20.6753 29.123 21.013C31.0567 21.3507 32.889 22.121 34.4831 23.2665C35.1849 23.7548 35.7517 24.4128 36.1306 25.1793C36.5094 25.9458 36.6881 26.7957 36.6497 27.6498Z" fill="black"/>
</g>
<defs>
<clipPath id="clip0_562_2996">
<rect width="40" height="40" fill="white"/>
</clipPath>
</defs>
</svg>
