<svg width="16" height="16" viewBox="0 0 16 16" fill="none" xmlns="http://www.w3.org/2000/svg">
<path d="M8.00033 15.1669C5.33366 15.1669 3.16699 13.2536 3.16699 10.9003V8.43359C3.16699 8.16026 3.39366 7.93359 3.66699 7.93359C3.94033 7.93359 4.16699 8.16026 4.16699 8.43359C4.16699 10.1803 5.81366 11.5003 8.00033 11.5003C10.187 11.5003 11.8337 10.1803 11.8337 8.43359C11.8337 8.16026 12.0603 7.93359 12.3337 7.93359C12.607 7.93359 12.8337 8.16026 12.8337 8.43359V10.9003C12.8337 13.2536 10.667 15.1669 8.00033 15.1669ZM4.16699 10.9736C4.21366 12.7403 5.91366 14.1669 8.00033 14.1669C10.087 14.1669 11.787 12.7403 11.8337 10.9736C10.967 11.9136 9.59366 12.5003 8.00033 12.5003C6.40699 12.5003 5.04033 11.9136 4.16699 10.9736Z" fill="black"/>
<path d="M8.00033 9.16732C6.16033 9.16732 4.50699 8.34065 3.70032 7.00732C3.35365 6.44065 3.16699 5.78065 3.16699 5.10065C3.16699 3.95398 3.68033 2.87398 4.60699 2.06065C5.51366 1.26732 6.72033 0.833984 8.00033 0.833984C9.28032 0.833984 10.4803 1.26732 11.3937 2.05398C12.3203 2.87398 12.8337 3.95398 12.8337 5.10065C12.8337 5.78065 12.647 6.43399 12.3003 7.00732C11.4937 8.34065 9.84032 9.16732 8.00033 9.16732ZM8.00033 1.83398C6.96033 1.83398 5.987 2.18065 5.26033 2.82065C4.55367 3.43398 4.16699 4.24732 4.16699 5.10065C4.16699 5.60065 4.30032 6.06732 4.55365 6.48732C5.18699 7.52732 6.50699 8.16732 8.00033 8.16732C9.49366 8.16732 10.8137 7.52065 11.447 6.48732C11.707 6.06732 11.8337 5.60065 11.8337 5.10065C11.8337 4.24732 11.447 3.43398 10.7337 2.80732C10.007 2.18065 9.04033 1.83398 8.00033 1.83398Z" fill="black"/>
<path d="M8.00033 12.5007C5.24699 12.5007 3.16699 10.754 3.16699 8.43398V5.10065C3.16699 2.74732 5.33366 0.833984 8.00033 0.833984C9.28032 0.833984 10.4803 1.26732 11.3937 2.05398C12.3203 2.87398 12.8337 3.95398 12.8337 5.10065V8.43398C12.8337 10.754 10.7537 12.5007 8.00033 12.5007ZM8.00033 1.83398C5.88699 1.83398 4.16699 3.30065 4.16699 5.10065V8.43398C4.16699 10.1806 5.81366 11.5007 8.00033 11.5007C10.187 11.5007 11.8337 10.1806 11.8337 8.43398V5.10065C11.8337 4.24732 11.447 3.43398 10.7337 2.80732C10.007 2.18065 9.04033 1.83398 8.00033 1.83398Z" fill="black"/>
</svg>
