<svg width="40" height="40" viewBox="0 0 40 40" fill="none" xmlns="http://www.w3.org/2000/svg">
<g clip-path="url(#clip0_1246_227885)">
<path opacity="0.4" d="M36.667 16.2499C36.3362 16.2477 36.0195 16.1153 35.7855 15.8813C35.5516 15.6474 35.4192 15.3307 35.417 14.9999V11.6665C35.4827 10.7194 35.3445 9.76923 35.0117 8.88006C34.679 7.99089 34.1594 7.18342 33.4881 6.5121C32.8168 5.84078 32.0093 5.32123 31.1201 4.98848C30.231 4.65573 29.2808 4.51753 28.3337 4.58319H11.667C10.7199 4.51753 9.76971 4.65573 8.88055 4.98848C7.99138 5.32123 7.18391 5.84078 6.51259 6.5121C5.84127 7.18342 5.32172 7.99089 4.98897 8.88006C4.65622 9.76923 4.51802 10.7194 4.58368 11.6665V14.9999C4.5815 15.3307 4.4491 15.6474 4.21515 15.8813C3.9812 16.1153 3.66453 16.2477 3.33368 16.2499C3.00283 16.2477 2.68616 16.1153 2.45221 15.8813C2.21826 15.6474 2.08586 15.3307 2.08368 14.9999V11.6665C2.00932 10.3886 2.20626 9.10937 2.66156 7.91297C3.11686 6.71657 3.82022 5.63007 4.72539 4.7249C5.63056 3.81973 6.71706 3.11638 7.91346 2.66107C9.10985 2.20577 10.3891 2.00883 11.667 2.08319H28.3337C29.6116 2.00883 30.8908 2.20577 32.0872 2.66107C33.2836 3.11638 34.3701 3.81973 35.2753 4.7249C36.1805 5.63007 36.8838 6.71657 37.3391 7.91297C37.7944 9.10937 37.9914 10.3886 37.917 11.6665V14.9999C37.9148 15.3307 37.7824 15.6474 37.5485 15.8813C37.3145 16.1153 36.9979 16.2477 36.667 16.2499Z" fill="black"/>
<path opacity="0.4" d="M28.3337 37.9167H11.667C10.3891 37.991 9.10985 37.7941 7.91346 37.3388C6.71706 36.8835 5.63056 36.1801 4.72539 35.275C3.82022 34.3698 3.11686 33.2833 2.66156 32.0869C2.20626 30.8905 2.00932 29.6113 2.08368 28.3333V25C2.08586 24.6692 2.21826 24.3525 2.45221 24.1185C2.68616 23.8846 3.00283 23.7522 3.33368 23.75C3.66453 23.7522 3.9812 23.8846 4.21515 24.1185C4.4491 24.3525 4.5815 24.6692 4.58368 25V28.3333C4.51802 29.2804 4.65622 30.2306 4.98897 31.1198C5.32172 32.009 5.84127 32.8164 6.51259 33.4878C7.18391 34.1591 7.99138 34.6786 8.88055 35.0114C9.76971 35.3441 10.7199 35.4823 11.667 35.4167H28.3337C29.2808 35.4823 30.231 35.3441 31.1201 35.0114C32.0093 34.6786 32.8168 34.1591 33.4881 33.4878C34.1594 32.8164 34.679 32.009 35.0117 31.1198C35.3445 30.2306 35.4827 29.2804 35.417 28.3333V25C35.417 24.6685 35.5487 24.3505 35.7831 24.1161C36.0176 23.8817 36.3355 23.75 36.667 23.75C36.9985 23.75 37.3165 23.8817 37.5509 24.1161C37.7853 24.3505 37.917 24.6685 37.917 25V28.3333C37.9914 29.6113 37.7944 30.8905 37.3391 32.0869C36.8838 33.2833 36.1805 34.3698 35.2753 35.275C34.3701 36.1801 33.2836 36.8835 32.0872 37.3388C30.8908 37.7941 29.6116 37.991 28.3337 37.9167Z" fill="black"/>
<path d="M27.3331 13.6851L21.0665 10.3001C20.7403 10.1277 20.377 10.0376 20.0081 10.0376C19.6392 10.0376 19.2759 10.1277 18.9498 10.3001L12.6831 13.6851C12.4599 13.8167 12.2749 14.0044 12.1463 14.2295C12.0178 14.4545 11.9502 14.7092 11.9502 14.9684C11.9502 15.2276 12.0178 15.4823 12.1463 15.7073C12.2749 15.9324 12.4599 16.12 12.6831 16.2517L18.9498 19.6351C19.2781 19.8101 19.6444 19.9017 20.0165 19.9017C20.3885 19.9017 20.7548 19.8101 21.0831 19.6351L27.3498 16.2517C27.5759 16.1232 27.7632 15.9363 27.8923 15.7105C28.0213 15.4847 28.0872 15.2284 28.0831 14.9684C28.0804 14.7078 28.0098 14.4523 27.8783 14.2273C27.7467 14.0023 27.5589 13.8154 27.3331 13.6851Z" fill="black"/>
<path d="M17.9001 20.7834L12.0668 17.8667C11.8469 17.7581 11.603 17.7073 11.3581 17.7189C11.1132 17.7306 10.8753 17.8044 10.6668 17.9334C10.4572 18.0596 10.284 18.2381 10.1642 18.4514C10.0444 18.6646 9.98214 18.9054 9.98342 19.15V24.6667C9.98174 25.1311 10.1105 25.5867 10.3551 25.9816C10.5996 26.3764 10.9502 26.6946 11.3668 26.9L17.2001 29.8167C17.4019 29.9171 17.6246 29.9685 17.8501 29.9667C18.1159 29.9697 18.3768 29.8944 18.6001 29.75C18.8096 29.6238 18.9828 29.4453 19.1026 29.232C19.2224 29.0187 19.2847 28.778 19.2834 28.5334V23.0167C19.2863 22.552 19.158 22.0959 18.9133 21.7009C18.6686 21.3058 18.3174 20.9878 17.9001 20.7834Z" fill="black"/>
<path d="M29.3169 17.9334C29.1083 17.8044 28.8704 17.7306 28.6255 17.7189C28.3806 17.7073 28.1367 17.7581 27.9169 17.8667L22.0835 20.7834C21.6684 20.9906 21.3192 21.3093 21.0749 21.7037C20.8306 22.0981 20.7008 22.5527 20.7002 23.0167V28.5334C20.6989 28.778 20.7612 29.0187 20.881 29.232C21.0008 29.4453 21.174 29.6238 21.3835 29.75C21.6068 29.8944 21.8677 29.9697 22.1335 29.9667C22.3586 29.9648 22.5804 29.9136 22.7835 29.8167L28.6169 26.9C29.032 26.6928 29.3812 26.3741 29.6255 25.9797C29.8699 25.5853 29.9996 25.1307 30.0002 24.6667V19.15C30.0015 18.9054 29.9392 18.6646 29.8194 18.4514C29.6996 18.2381 29.5264 18.0596 29.3169 17.9334Z" fill="black"/>
</g>
<defs>
<clipPath id="clip0_1246_227885">
<rect width="40" height="40" fill="white"/>
</clipPath>
</defs>
</svg>
