<svg width="40" height="40" viewBox="0 0 40 40" fill="none" xmlns="http://www.w3.org/2000/svg">
<path opacity="0.2" d="M28.334 12.9168C28.1698 12.9174 28.0071 12.8853 27.8555 12.8224C27.7038 12.7594 27.5662 12.6669 27.4507 12.5502C27.2182 12.3149 27.0878 11.9976 27.0878 11.6668C27.0878 11.3361 27.2182 11.0187 27.4507 10.7835L30.8673 7.36684C27.5983 4.55488 23.3666 3.11935 19.0614 3.36185C14.7562 3.60435 10.7125 5.50601 7.7799 8.66729C4.84731 11.8286 3.25409 16.0034 3.33497 20.3147C3.41584 24.626 5.16451 28.7382 8.21359 31.7873C11.2627 34.8363 15.3748 36.585 19.6861 36.6659C23.9974 36.7467 28.1723 35.1535 31.3335 32.2209C34.4948 29.2884 36.3965 25.2447 36.639 20.9394C36.8815 16.6342 35.446 12.4026 32.634 9.13351L29.2173 12.5502C29.1018 12.6669 28.9642 12.7594 28.8125 12.8224C28.6609 12.8853 28.4982 12.9174 28.334 12.9168Z" fill="black"/>
<path d="M22.9173 19.7L21.2506 19.1167V15.4167H21.3839C21.808 15.4353 22.2073 15.6211 22.4947 15.9334C22.782 16.2458 22.934 16.6592 22.9173 17.0833C22.9173 17.4149 23.049 17.7328 23.2834 17.9672C23.5178 18.2016 23.8358 18.3333 24.1673 18.3333C24.4988 18.3333 24.8167 18.2016 25.0512 17.9672C25.2856 17.7328 25.4173 17.4149 25.4173 17.0833C25.4263 16.5448 25.3291 16.0098 25.1313 15.5089C24.9334 15.008 24.6388 14.551 24.2642 14.164C23.8896 13.7771 23.4424 13.4677 22.9482 13.2537C22.454 13.0397 21.9225 12.9251 21.3839 12.9167H21.2506V12.5C21.2506 12.1685 21.1189 11.8505 20.8845 11.6161C20.6501 11.3817 20.3321 11.25 20.0006 11.25C19.6691 11.25 19.3511 11.3817 19.1167 11.6161C18.8823 11.8505 18.7506 12.1685 18.7506 12.5V12.9167H18.2506C17.261 12.9359 16.3194 13.3467 15.6321 14.059C14.9448 14.7713 14.5679 15.727 14.5839 16.7167C14.5125 17.5146 14.7237 18.3123 15.1806 18.9704C15.6376 19.6284 16.3113 20.1049 17.0839 20.3167L18.7506 20.9V24.6H18.6173C18.1933 24.5814 17.7939 24.3956 17.5065 24.0832C17.2192 23.7709 17.0672 23.3574 17.0839 22.9333C17.0818 22.6025 16.9494 22.2858 16.7154 22.0519C16.4815 21.8179 16.1648 21.6855 15.8339 21.6833C15.5031 21.6855 15.1864 21.8179 14.9525 22.0519C14.7185 22.2858 14.5861 22.6025 14.5839 22.9333C14.5749 23.4718 14.6721 24.0068 14.8699 24.5077C15.0678 25.0087 15.3624 25.4657 15.737 25.8526C16.1116 26.2396 16.5588 26.5489 17.053 26.763C17.5472 26.977 18.0788 27.0915 18.6173 27.1H18.7506V27.5167C18.7506 27.8482 18.8823 28.1661 19.1167 28.4005C19.3511 28.635 19.6691 28.7667 20.0006 28.7667C20.3321 28.7667 20.6501 28.635 20.8845 28.4005C21.1189 28.1661 21.2506 27.8482 21.2506 27.5167V27.1H21.7506C22.7402 27.0807 23.6819 26.6699 24.3691 25.9576C25.0564 25.2454 25.4333 24.2897 25.4173 23.3C25.4945 22.5011 25.2856 21.7006 24.8277 21.0413C24.3699 20.3821 23.6929 19.9067 22.9173 19.7ZM17.9006 17.9333C17.3339 17.7333 17.0839 17.6167 17.0839 16.7C17.0693 16.3737 17.1834 16.0546 17.4015 15.8115C17.6197 15.5684 17.9246 15.4206 18.2506 15.4H18.7506V18.2167L17.9006 17.9333ZM21.7506 24.5833H21.2506V21.7667L22.1006 22.0667C22.6673 22.2667 22.9173 22.3833 22.9173 23.3C22.9287 23.6238 22.8131 23.9393 22.5951 24.1791C22.3772 24.4189 22.0741 24.564 21.7506 24.5833Z" fill="black"/>
<path d="M37.8158 2.84975C37.684 2.54282 37.4393 2.29821 37.1324 2.16642C36.98 2.09981 36.8154 2.06575 36.6491 2.06642H29.9824C29.6516 2.0686 29.3349 2.201 29.101 2.43495C28.867 2.66889 28.7346 2.98557 28.7324 3.31642C28.7346 3.64726 28.867 3.96394 29.101 4.19789C29.3349 4.43183 29.6516 4.56423 29.9824 4.56642H33.6324L30.8491 7.34975C31.4789 7.89624 32.0693 8.4866 32.6158 9.11642L35.3991 6.33308V9.99975C35.3991 10.3313 35.5308 10.6492 35.7652 10.8836C35.9996 11.1181 36.3176 11.2497 36.6491 11.2497C36.9806 11.2497 37.2986 11.1181 37.533 10.8836C37.7674 10.6492 37.8991 10.3313 37.8991 9.99975V3.33308C37.9119 3.16755 37.8832 3.00144 37.8158 2.84975Z" fill="black"/>
</svg>
