<svg width="16" height="16" viewBox="0 0 16 16" fill="none" xmlns="http://www.w3.org/2000/svg">
<g id="Frame 2">
<g id="&#240;&#159;&#166;&#134; icon &#34;more&#34;">
<g id="Group">
<path id="Vector" d="M6.00013 2.90228C6.00013 1.85084 6.85096 1 7.90241 1C8.95385 1 9.80469 1.85084 9.80469 2.90228C9.80469 3.95372 8.95385 4.80456 7.90241 4.80456C6.85096 4.80456 6.00013 3.95372 6.00013 2.90228Z" fill="#BEBEBE"/>
<path id="Vector_2" d="M6.00013 12.5878C6.00013 11.5364 6.85096 10.6855 7.90241 10.6855C8.95385 10.6855 9.80469 11.5364 9.80469 12.5878C9.80469 13.6393 8.95385 14.4901 7.90241 14.4901C6.85096 14.4901 6.00013 13.6393 6.00013 12.5878Z" fill="#BEBEBE"/>
<path id="Vector_3" d="M6.00013 7.74017C6.00013 6.68873 6.85096 5.83789 7.90241 5.83789C8.95385 5.83789 9.80469 6.68873 9.80469 7.74017C9.80469 8.79161 8.95385 9.64245 7.90241 9.64245C6.85096 9.64245 6.00013 8.79161 6.00013 7.74017Z" fill="#BEBEBE"/>
</g>
</g>
</g>
</svg>
