<svg width="12" height="16" viewBox="0 0 12 16" fill="none" xmlns="http://www.w3.org/2000/svg">
<g id="icon">
<path id="doc" fill-rule="evenodd" clip-rule="evenodd" d="M0 1.39683V14.6032C0 15.3746 0.615608 16 1.375 16H10.625C11.3844 16 12 15.3746 12 14.6032V3.67563C12 3.30251 11.8531 2.9449 11.5919 2.68251L9.32391 0.403706C9.0665 0.145065 8.71906 0 8.357 0H1.375C0.615608 0 0 0.62538 0 1.39683ZM0.875 14.6032V1.39683C0.875 1.1163 1.09886 0.888889 1.375 0.888889H8.1875V3.93651C8.1875 4.46249 8.60723 4.88889 9.125 4.88889H11.125V14.6032C11.125 14.8837 10.9011 15.1111 10.625 15.1111H1.375C1.09886 15.1111 0.875 14.8837 0.875 14.6032ZM11.125 4V3.67563C11.125 3.53995 11.0716 3.40991 10.9766 3.3145L9.0625 1.39127V3.93651C9.0625 3.97157 9.09048 4 9.125 4H11.125Z" fill="#9D9C9B"/>
<path id="line" fill-rule="evenodd" clip-rule="evenodd" d="M2 6.5C2 6.125 2.125 6 2.5 6H9.5C9.875 6 10 6.125 10 6.5C10 6.875 9.875 7 9.5 7H2.5C2.125 7 2 6.875 2 6.5Z" fill="#C9C7C5"/>
<path id="line_2" fill-rule="evenodd" clip-rule="evenodd" d="M2 8.5C2 8.125 2.125 8 2.5 8H9.5C9.875 8 10 8.125 10 8.5C10 8.875 9.875 9 9.5 9H2.5C2.125 9 2 8.875 2 8.5Z" fill="#C9C7C5"/>
<path id="line_3" fill-rule="evenodd" clip-rule="evenodd" d="M2 10.5C2 10.125 2.125 10 2.5 10H9.5C9.875 10 10 10.125 10 10.5C10 10.875 9.875 11 9.5 11H2.5C2.125 11 2 10.875 2 10.5Z" fill="#C9C7C5"/>
<path id="line_4" fill-rule="evenodd" clip-rule="evenodd" d="M2 12.5C2 12.125 2.125 12 2.5 12H9.5C9.875 12 10 12.125 10 12.5C10 12.875 9.875 13 9.5 13H2.5C2.125 13 2 12.875 2 12.5Z" fill="#C9C7C5"/>
</g>
</svg>
