<svg width="19" height="19" viewBox="0 0 19 19" fill="none" xmlns="http://www.w3.org/2000/svg">
<path opacity="0.5" d="M11.44 3.06607L12.92 1.58607C13.1057 1.40027 13.3262 1.25288 13.5689 1.15232C13.8116 1.05176 14.0717 1 14.3345 1C14.5972 1 14.8573 1.05176 15.1 1.15232C15.3427 1.25288 15.5632 1.40027 15.749 1.58607L17.163 3.00007C17.5379 3.37513 17.7485 3.88374 17.7485 4.41407C17.7485 4.9444 17.5379 5.45302 17.163 5.82807L15.683 7.30807M11.44 3.06607L1.82396 12.6811C1.49194 13.0131 1.28733 13.4514 1.24596 13.9191L1.00396 16.6591C0.99096 16.8047 1.01007 16.9515 1.05993 17.0889C1.1098 17.2264 1.18921 17.3513 1.29257 17.4547C1.39593 17.5582 1.52071 17.6377 1.65814 17.6877C1.79557 17.7377 1.94229 17.7569 2.08796 17.7441L4.82796 17.5021C5.29638 17.4612 5.73542 17.2565 6.06796 16.9241L15.683 7.30807M11.44 3.06607L15.683 7.30807" stroke="black" stroke-width="1.5" stroke-linecap="round" stroke-linejoin="round"/>
</svg>
