<svg width="24" height="24" viewBox="0 0 24 24" fill="none" xmlns="http://www.w3.org/2000/svg">
<g clip-path="url(#clip0_969_5512)">
<path d="M21 16.25H15C14.8015 16.2487 14.6115 16.1693 14.4711 16.0289C14.3307 15.8885 14.2513 15.6985 14.25 15.5C14.2513 15.3015 14.3307 15.1115 14.4711 14.9711C14.6115 14.8307 14.8015 14.7513 15 14.75H21C21.1985 14.7513 21.3885 14.8307 21.5289 14.9711C21.6693 15.1115 21.7487 15.3015 21.75 15.5C21.7487 15.6985 21.6693 15.8885 21.5289 16.0289C21.3885 16.1693 21.1985 16.2487 21 16.25Z" fill="black"/>
<path d="M21 20.25H15C14.8015 20.2487 14.6115 20.1693 14.4711 20.0289C14.3307 19.8885 14.2513 19.6985 14.25 19.5C14.2513 19.3015 14.3307 19.1115 14.4711 18.9711C14.6115 18.8307 14.8015 18.7513 15 18.75H21C21.1985 18.7513 21.3885 18.8307 21.5289 18.9711C21.6693 19.1115 21.7487 19.3015 21.75 19.5C21.7487 19.6985 21.6693 19.8885 21.5289 20.0289C21.3885 20.1693 21.1985 20.2487 21 20.25Z" fill="black"/>
<path d="M22 8.52V3.98C22 2.57 21.36 2 19.77 2H15.73C14.14 2 13.5 2.57 13.5 3.98V8.51C13.5 9.93 14.14 10.49 15.73 10.49H19.77C21.36 10.5 22 9.93 22 8.52Z" fill="black"/>
<path d="M10.5 8.52V3.98C10.5 2.57 9.86 2 8.27 2H4.23C2.64 2 2 2.57 2 3.98V8.51C2 9.93 2.64 10.49 4.23 10.49H8.27C9.86 10.5 10.5 9.93 10.5 8.52Z" fill="black"/>
<path d="M10.5 19.77V15.73C10.5 14.14 9.86 13.5 8.27 13.5H4.23C2.64 13.5 2 14.14 2 15.73V19.77C2 21.36 2.64 22 4.23 22H8.27C9.86 22 10.5 21.36 10.5 19.77Z" fill="black"/>
</g>
<defs>
<clipPath id="clip0_969_5512">
<rect width="24" height="24" fill="white"/>
</clipPath>
</defs>
</svg>
