<svg width="20" height="20" viewBox="0 0 20 20" fill="none" xmlns="http://www.w3.org/2000/svg">
<g id="Group 225">
<path id="Vector" d="M18.4615 3.63637H10.3183L7.69231 0.532963C7.54997 0.363395 7.38052 0.228956 7.19383 0.137463C7.00714 0.0459691 6.80692 -0.000753908 6.60481 9.1988e-06H1.53846C1.13044 9.1988e-06 0.739122 0.191567 0.450605 0.532542C0.162087 0.873517 0 1.33598 0 1.81819V18.2523C0.000508837 18.7156 0.156479 19.1598 0.433706 19.4874C0.710933 19.8151 1.08679 19.9994 1.47885 20H18.5471C18.9323 19.9994 19.3015 19.8183 19.5739 19.4964C19.8463 19.1745 19.9995 18.7382 20 18.283V5.45455C20 4.97234 19.8379 4.50988 19.5494 4.1689C19.2609 3.82793 18.8696 3.63637 18.4615 3.63637ZM1.53846 1.81819H6.60481L8.14327 3.63637H1.53846V1.81819ZM18.4615 18.1818H1.53846V5.45455H18.4615V18.1818Z" fill="black"/>
<rect id="Rectangle 136" x="1.25" y="4.61523" width="17.5" height="13.8462" fill="black"/>
<path id="Vector 12" d="M6.875 1.53857H1.25V3.84627H8.75L6.875 1.53857Z" fill="black" stroke="black"/>
</g>
</svg>
