<svg width="17" height="16" viewBox="0 0 17 16" fill="none" xmlns="http://www.w3.org/2000/svg">
<g clip-path="url(#clip0_1092_11100)">
<path d="M14.8856 14.6673L13.5427 13.334M7.8356 14.0007C8.67324 14.0007 9.50269 13.8368 10.2766 13.5186C11.0505 13.2003 11.7536 12.7338 12.3459 12.1457C12.9382 11.5576 13.4081 10.8594 13.7286 10.091C14.0492 9.32258 14.2142 8.49902 14.2142 7.66732C14.2142 6.83561 14.0492 6.01205 13.7286 5.24366C13.4081 4.47526 12.9382 3.77708 12.3459 3.18897C11.7536 2.60087 11.0505 2.13436 10.2766 1.81608C9.50269 1.4978 8.67324 1.33398 7.8356 1.33398C6.1439 1.33398 4.52148 2.00124 3.32527 3.18897C2.12906 4.37671 1.45703 5.98761 1.45703 7.66732C1.45703 9.34702 2.12906 10.9579 3.32527 12.1457C4.52148 13.3334 6.1439 14.0007 7.8356 14.0007Z" stroke="black" stroke-width="1.5" stroke-linecap="round" stroke-linejoin="round"/>
</g>
<defs>
<clipPath id="clip0_1092_11100">
<rect width="16.1143" height="16" fill="white" transform="translate(0.114258)"/>
</clipPath>
</defs>
</svg>
