<svg width="24" height="24" viewBox="0 0 24 24" fill="none" xmlns="http://www.w3.org/2000/svg">
<g clip-path="url(#clip0_562_3073)">
<path d="M22.0197 16.8201L18.8897 9.50015C18.3197 8.16015 17.4697 7.40015 16.4947 7.34715C15.5197 7.29415 14.6047 7.96715 13.8947 9.24715L11.9947 12.6571C11.8502 12.9735 11.6291 13.2488 11.3515 13.4583C11.0739 13.6678 10.7485 13.8049 10.4047 13.8571C10.0558 13.867 9.71011 13.7877 9.40038 13.6267C9.09066 13.4657 8.82713 13.2284 8.6347 12.9371L8.4147 12.6571C8.13975 12.256 7.76638 11.9323 7.33037 11.7169C6.89436 11.5015 6.41034 11.4017 5.9247 11.4271C5.44525 11.5037 4.99348 11.702 4.61265 12.0032C4.23182 12.3044 3.93469 12.6982 3.7497 13.1471L2.0197 16.6001C1.71454 17.2074 1.56988 17.8826 1.59948 18.5616C1.62909 19.2406 1.83197 19.9007 2.18882 20.479C2.54567 21.0574 3.04462 21.5348 3.63816 21.8659C4.2317 22.1969 4.90009 22.3705 5.5797 22.3701H18.3397C18.9995 22.3705 19.6491 22.2072 20.2303 21.8948C20.8115 21.5824 21.306 21.1307 21.6697 20.5801C22.0404 20.0338 22.267 19.4026 22.3281 18.7451C22.3893 18.0877 22.2832 17.4255 22.0197 16.8201Z" fill="#A2A2A2"/>
<path d="M10.3498 5.00012C10.3498 5.66862 10.1516 6.32211 9.78021 6.87794C9.40881 7.43378 8.88093 7.86701 8.26332 8.12283C7.6457 8.37865 6.9661 8.44559 6.31044 8.31517C5.65478 8.18475 5.05253 7.86284 4.57982 7.39014C4.10712 6.91744 3.78521 6.31518 3.65479 5.65952C3.52437 5.00387 3.59131 4.32426 3.84713 3.70665C4.10296 3.08903 4.53618 2.56115 5.09202 2.18975C5.64786 1.81835 6.30134 1.62012 6.96985 1.62012C7.86628 1.62012 8.72599 1.97622 9.35987 2.6101C9.99374 3.24397 10.3498 4.10369 10.3498 5.00012Z" fill="#A2A2A2"/>
</g>
<defs>
<clipPath id="clip0_562_3073">
<rect width="24" height="24" fill="white"/>
</clipPath>
</defs>
</svg>
