<svg width="10" height="10" viewBox="0 0 10 10" fill="none" xmlns="http://www.w3.org/2000/svg">
<g clip-path="url(#clip0_1370_28810)">
<path d="M5 10C5.98891 10 6.95561 9.70676 7.77785 9.15735C8.6001 8.60794 9.24096 7.82705 9.6194 6.91342C9.99784 5.99979 10.0969 4.99446 9.90393 4.02455C9.711 3.05465 9.2348 2.16373 8.53553 1.46447C7.83627 0.765206 6.94536 0.289002 5.97545 0.0960758C5.00555 -0.0968503 4.00021 0.00216643 3.08658 0.380605C2.17295 0.759043 1.39206 1.39991 0.842652 2.22215C0.293245 3.0444 0 4.0111 0 5C0.00143378 6.32564 0.528678 7.59658 1.46605 8.53395C2.40342 9.47132 3.67436 9.99857 5 10ZM5 2.08334C5.12361 2.08334 5.24445 2.11999 5.34723 2.18867C5.45001 2.25734 5.53012 2.35495 5.57743 2.46916C5.62473 2.58336 5.63711 2.70903 5.61299 2.83027C5.58888 2.95151 5.52935 3.06287 5.44194 3.15028C5.35453 3.23769 5.24317 3.29721 5.12193 3.32133C5.00069 3.34544 4.87503 3.33307 4.76082 3.28576C4.64662 3.23846 4.54901 3.15835 4.48033 3.05557C4.41166 2.95279 4.375 2.83195 4.375 2.70834C4.375 2.54258 4.44085 2.3836 4.55806 2.26639C4.67527 2.14918 4.83424 2.08334 5 2.08334ZM4.58333 4.16667H5C5.22101 4.16667 5.43298 4.25447 5.58926 4.41075C5.74554 4.56703 5.83333 4.77899 5.83333 5V7.5C5.83333 7.61051 5.78944 7.71649 5.7113 7.79463C5.63315 7.87277 5.52717 7.91667 5.41667 7.91667C5.30616 7.91667 5.20018 7.87277 5.12204 7.79463C5.0439 7.71649 5 7.61051 5 7.5V5H4.58333C4.47283 5 4.36685 4.9561 4.28871 4.87796C4.21057 4.79982 4.16667 4.69384 4.16667 4.58334C4.16667 4.47283 4.21057 4.36685 4.28871 4.28871C4.36685 4.21057 4.47283 4.16667 4.58333 4.16667Z" fill="#EE3E38"/>
</g>
<defs>
<clipPath id="clip0_1370_28810">
<rect width="10" height="10" fill="white"/>
</clipPath>
</defs>
</svg>
