<svg width="24" height="24" viewBox="0 0 24 24" fill="none" xmlns="http://www.w3.org/2000/svg">
<g id="key 1" clip-path="url(#clip0_1087_14561)">
<path id="Vector" d="M6.89062 17.4902L9.19063 19.7902" stroke="#808080" stroke-miterlimit="10" stroke-linecap="round" stroke-linejoin="round"/>
<path id="Vector_2" d="M14.5 11C15.3284 11 16 10.3284 16 9.5C16 8.67157 15.3284 8 14.5 8C13.6716 8 13 8.67157 13 9.5C13 10.3284 13.6716 11 14.5 11Z" stroke="#808080" stroke-linecap="round" stroke-linejoin="round"/>
<g id="vuesax/linear/document">
<g id="document">
<path id="Vector_3" d="M22 10V15C22 20 20 22 15 22H9C4 22 2 20 2 15V9C2 4 4 2 9 2H14" stroke="#808080" stroke-linecap="round" stroke-linejoin="round"/>
<path id="Vector_4" d="M22 10H18C15 10 14 9 14 6V2L22 10Z" stroke="#808080" stroke-linecap="round" stroke-linejoin="round"/>
</g>
</g>
</g>
<defs>
<clipPath id="clip0_1087_14561">
<rect width="24" height="24" fill="white"/>
</clipPath>
</defs>
</svg>
