<svg width="40" height="40" viewBox="0 0 40 40" fill="none" xmlns="http://www.w3.org/2000/svg">
<g clip-path="url(#clip0_562_2979)">
<path d="M34.2335 31.7335C34.1176 31.8498 33.98 31.9421 33.8284 32.005C33.6768 32.068 33.5143 32.1004 33.3501 32.1004C33.186 32.1004 33.0235 32.068 32.8719 32.005C32.7203 31.9421 32.5826 31.8498 32.4668 31.7335L24.2168 23.4835L25.1001 22.6001L25.9835 21.7168L34.2335 29.9668C34.4659 30.202 34.5963 30.5194 34.5963 30.8501C34.5963 31.1808 34.4659 31.4982 34.2335 31.7335Z" fill="black"/>
<path opacity="0.4" d="M10.783 15.4669L20.4497 25.1335C20.7601 25.4458 20.9343 25.8682 20.9343 26.3085C20.9343 26.7489 20.7601 27.1713 20.4497 27.4835L18.9497 29.0002C18.6338 29.3172 18.2585 29.5687 17.8452 29.7403C17.4319 29.9119 16.9888 30.0002 16.5414 30.0002C16.0939 30.0002 15.6508 29.9119 15.2375 29.7403C14.8242 29.5687 14.4489 29.3172 14.133 29.0002L6.89969 21.7669C6.26704 21.1283 5.91211 20.2658 5.91211 19.3669C5.91211 18.468 6.26704 17.6054 6.89969 16.9669L8.41136 15.4502C8.73032 15.1423 9.15724 14.9715 9.60059 14.9747C10.0439 14.9778 10.4684 15.1545 10.783 15.4669Z" fill="black"/>
<path d="M30.9834 16.9853L24.6335 23.3186C24.4763 23.477 24.2894 23.6028 24.0835 23.6886C23.8775 23.7744 23.6566 23.8186 23.4335 23.8186C23.2103 23.8186 22.9894 23.7744 22.7835 23.6886C22.5775 23.6028 22.3906 23.477 22.2335 23.3186L12.6168 13.7019C12.4576 13.5447 12.3312 13.3575 12.2449 13.1511C12.1587 12.9447 12.1143 12.7232 12.1143 12.4994C12.1143 12.2757 12.1587 12.0542 12.2449 11.8478C12.3312 11.6414 12.4576 11.4541 12.6168 11.2969L18.9668 4.95194C19.6053 4.31928 20.4679 3.96436 21.3668 3.96436C22.2657 3.96436 23.1282 4.31928 23.7668 4.95194L31.0001 12.1853C31.627 12.8279 31.9764 13.691 31.9733 14.5887C31.9702 15.4864 31.6147 16.347 30.9834 16.9853Z" fill="black"/>
<path d="M13.333 36.25H3.33301C3.00216 36.2478 2.68549 36.1154 2.45154 35.8815C2.21759 35.6475 2.08519 35.3308 2.08301 35C2.08519 34.6692 2.21759 34.3525 2.45154 34.1185C2.68549 33.8846 3.00216 33.7522 3.33301 33.75H13.333C13.6639 33.7522 13.9805 33.8846 14.2145 34.1185C14.4484 34.3525 14.5808 34.6692 14.583 35C14.5808 35.3308 14.4484 35.6475 14.2145 35.8815C13.9805 36.1154 13.6639 36.2478 13.333 36.25Z" fill="black"/>
</g>
<defs>
<clipPath id="clip0_562_2979">
<rect width="40" height="40" fill="white"/>
</clipPath>
</defs>
</svg>
