<svg width="33" height="32" viewBox="0 0 33 32" fill="none" xmlns="http://www.w3.org/2000/svg">
<g clip-path="url(#clip0_983_10810)">
<path d="M15.3369 2.6665H12.6702C6.00358 2.6665 3.33691 5.33317 3.33691 11.9998V19.9998C3.33691 26.6665 6.00358 29.3332 12.6702 29.3332H20.6702C27.3369 29.3332 30.0036 26.6665 30.0036 19.9998V17.3332" stroke="#EFAD0D" stroke-width="2" stroke-linecap="round" stroke-linejoin="round"/>
<path d="M22.0564 4.02652L11.5497 14.5332C11.0993 15.0272 10.7947 15.6364 10.6697 16.2932L10.0964 20.3065C10.0267 20.6185 10.037 20.9431 10.1263 21.2501C10.2155 21.5571 10.3808 21.8366 10.6069 22.0627C10.833 22.2887 11.1124 22.4541 11.4194 22.5433C11.7264 22.6325 12.051 22.6428 12.363 22.5732L16.3764 21.9998C17.0312 21.8692 17.639 21.5653 18.1364 21.1198L28.643 10.6132C30.4564 8.79985 31.3097 6.69318 28.643 4.02652C25.9764 1.35985 23.8697 2.21318 22.0564 4.02652Z" stroke="#EFAD0D" stroke-width="2" stroke-linecap="round" stroke-linejoin="round"/>
<path d="M20.5498 5.5332C20.9919 7.10316 21.8298 8.53329 22.9831 9.6866C24.1364 10.8399 25.5665 11.6777 27.1365 12.1199" stroke="#EFAD0D" stroke-width="2" stroke-linecap="round" stroke-linejoin="round"/>
</g>
<defs>
<clipPath id="clip0_983_10810">
<rect width="32" height="32" fill="white" transform="translate(0.669922)"/>
</clipPath>
</defs>
</svg>
