<svg width="32" height="32" viewBox="0 0 32 32" fill="none" xmlns="http://www.w3.org/2000/svg">
<path opacity="0.4" d="M15.9995 23.1333C17.1999 23.1333 18.1728 22.1602 18.1728 20.96C18.1728 19.7597 17.1999 18.7866 15.9995 18.7866C14.7992 18.7866 13.8262 19.7597 13.8262 20.96C13.8262 22.1602 14.7992 23.1333 15.9995 23.1333Z" fill="white"/>
<path d="M22.1993 12.5864H9.79935C4.33268 12.5864 2.66602 14.253 2.66602 19.7197V22.1997C2.66602 27.6664 4.33268 29.333 9.79935 29.333H22.1993C27.666 29.333 29.3327 27.6664 29.3327 22.1997V19.7197C29.3327 14.253 27.666 12.5864 22.1993 12.5864ZM15.9993 24.9864C13.7727 24.9864 11.9727 23.173 11.9727 20.9597C11.9727 18.7464 13.7727 16.933 15.9993 16.933C18.226 16.933 20.026 18.7464 20.026 20.9597C20.026 23.173 18.226 24.9864 15.9993 24.9864Z" fill="white"/>
<path opacity="0.4" d="M9.49362 12.5998V11.0398C9.49362 7.13317 10.6003 4.53317 16.0003 4.53317C21.4003 4.53317 22.507 7.13317 22.507 11.0398V12.5998C23.187 12.6132 23.8003 12.6398 24.3736 12.7198V11.0398C24.3736 7.43984 23.507 2.6665 16.0003 2.6665C8.49362 2.6665 7.62695 7.43984 7.62695 11.0398V12.7065C8.18695 12.6398 8.81362 12.5998 9.49362 12.5998Z" fill="white"/>
</svg>
