<?xml version="1.0" encoding="utf-8"?>
<!-- Generator: Adobe Illustrator 28.1.0, SVG Export Plug-In . SVG Version: 6.00 Build 0)  -->
<svg version="1.1" id="Layer_1" xmlns="http://www.w3.org/2000/svg" xmlns:xlink="http://www.w3.org/1999/xlink" x="0px" y="0px"
	 viewBox="0 0 200 50" style="enable-background:new 0 0 200 50;" xml:space="preserve">
<style type="text/css">
	.st0{fill:#FFFFFF;}
</style>
<g>
	<g>
		<path class="st0" d="M29.8,13.8c-0.2-0.3-0.5-0.5-0.7-0.7c-2.7-2.7-6.5-4.4-10.6-4.4S10.6,10.3,7.9,13s-4.4,6.5-4.4,10.6
			s1.7,7.9,4.4,10.6s6.5,4.4,10.6,4.4c3.3,0,6.4-1.1,8.9-2.9l1.7,1.7l1.6,1.6l2.4,2.4l0,0c0,0.1,0.1,0.1,0.2,0.1
			c0.1,0,0.2-0.1,0.3-0.2V41v-1.9v-3.6l0,0V23.6C33.5,19.9,32.1,16.4,29.8,13.8z M29.1,23.6v0.2C29.1,23.7,29.1,23.7,29.1,23.6
			s0-0.1,0-0.2V23.6z M18.5,34.2L18.5,34.2c-2.9,0-5.6-1.2-7.5-3.1s-3.1-4.6-3.1-7.5l0,0c0-2.9,1.2-5.6,3.1-7.5s4.6-3.1,7.5-3.1l0,0
			c2.9,0,5.6,1.2,7.5,3.1s3.1,4.6,3.1,7.5l0,0c0,2-0.5,3.8-1.5,5.4l0,0c-0.1,0.1-0.1,0.1-0.2,0.1s-0.1,0-0.2-0.1l0,0l-0.7-0.7l0,0
			l0,0l0,0L25.1,27c-0.1,0-0.2,0-0.2,0c-0.1,0-0.1,0-0.2,0.1l0,0l-1.3,1.3l0,0l-0.1,0.1l-0.1,0.1l0,0l-1.3,1.3l0,0
			c0,0-0.1,0.1-0.1,0.2s0,0.1,0.1,0.2l0,0l1.4,1.4l0.7,0.7c0,0,0.1,0.1,0.1,0.2c0,0.1-0.1,0.2-0.1,0.2l0,0
			C22.4,33.7,20.5,34.2,18.5,34.2z M29.1,34.3L29.1,34.3L29.1,34.3L29.1,34.3z"/>
		<circle class="st0" cx="18.5" cy="23.6" r="3.3"/>
	</g>
	<g>
		<path class="st0" d="M57.3,37.7L53.6,34c-0.9,0.2-1.8,0.4-2.8,0.4c-1.7,0-3.3-0.4-4.7-1.2s-2.5-1.9-3.3-3.4
			c-0.8-1.4-1.2-3.1-1.2-4.9s0.4-3.4,1.2-4.9c0.8-1.4,1.9-2.6,3.3-3.4c1.4-0.8,3-1.2,4.7-1.2s3.3,0.4,4.7,1.2
			c1.4,0.8,2.5,1.9,3.3,3.3S60,23,60,24.8s-0.4,3.4-1.2,4.8C58,31,57,32.1,55.6,32.9l4.7,4.6h-3V37.7z M44.9,28.8
			c0.6,1.1,1.4,2,2.4,2.6s2.2,0.9,3.5,0.9s2.4-0.3,3.5-0.9c1-0.6,1.8-1.5,2.4-2.6c0.6-1.1,0.9-2.4,0.9-3.9s-0.3-2.8-0.9-3.9
			c-0.6-1.1-1.4-2-2.4-2.6s-2.2-0.9-3.5-0.9s-2.5,0.3-3.5,0.9s-1.8,1.5-2.4,2.6c-0.6,1.2-0.9,2.5-0.9,4C44,26.4,44.3,27.7,44.9,28.8
			z"/>
		<path class="st0" d="M76.2,19.7v14.5h-2.4V32c-0.5,0.7-1.1,1.3-1.9,1.7s-1.7,0.6-2.7,0.6c-1.1,0-2.1-0.2-3-0.7s-1.6-1.2-2.1-2.1
			s-0.8-2.1-0.8-3.4v-8.5h2.4v8.2c0,1.4,0.4,2.5,1.1,3.3s1.7,1.2,3,1.2s2.3-0.4,3-1.2c0.7-0.8,1.1-2,1.1-3.5v-8h2.3V19.7z"/>
		<path class="st0" d="M80.3,16.8c-0.3-0.3-0.5-0.7-0.5-1.2c0-0.5,0.2-0.8,0.5-1.2c0.3-0.3,0.7-0.5,1.2-0.5c0.4,0,0.8,0.2,1.1,0.5
			c0.3,0.3,0.5,0.7,0.5,1.2c0,0.5-0.2,0.8-0.5,1.2c-0.3,0.3-0.7,0.5-1.1,0.5C81,17.3,80.7,17.2,80.3,16.8z M82.7,19.7v14.5h-2.4
			V19.7H82.7z"/>
		<path class="st0" d="M86.8,23c0.6-1.1,1.4-2,2.5-2.6s2.3-0.9,3.7-0.9c1.8,0,3.3,0.4,4.4,1.3c1.2,0.9,1.9,2.1,2.3,3.6H97
			c-0.2-0.9-0.7-1.6-1.4-2.1c-0.7-0.5-1.6-0.8-2.7-0.8c-1.4,0-2.5,0.5-3.3,1.4s-1.3,2.3-1.3,4s0.4,3.1,1.3,4.1c0.8,1,2,1.4,3.3,1.4
			c1.1,0,1.9-0.2,2.6-0.7s1.2-1.2,1.5-2.1h2.6c-0.4,1.5-1.2,2.7-2.3,3.6c-1.2,0.9-2.6,1.3-4.4,1.3c-1.4,0-2.6-0.3-3.7-0.9
			c-1.1-0.6-1.9-1.5-2.5-2.6s-0.9-2.5-0.9-4C85.9,25.4,86.2,24.1,86.8,23z"/>
		<path class="st0" d="M111,34.2l-5.7-6.4v6.4h-2.4V14.6h2.4v11.5l5.6-6.4h3.4l-6.8,7.2l6.9,7.3H111z"/>
		<path class="st0" d="M127.4,30.1h-8l-1.5,4.1h-2.5l6.7-18.3h2.8l6.6,18.3H129L127.4,30.1z M126.7,28.1l-3.3-9.3l-3.3,9.3
			C120.1,28.1,126.7,28.1,126.7,28.1z"/>
		<path class="st0" d="M134.3,23c0.6-1.1,1.4-2,2.5-2.6s2.3-0.9,3.7-0.9c1.8,0,3.3,0.4,4.4,1.3c1.2,0.9,1.9,2.1,2.3,3.6h-2.6
			c-0.2-0.9-0.7-1.6-1.4-2.1s-1.6-0.8-2.7-0.8c-1.4,0-2.5,0.5-3.3,1.4s-1.3,2.3-1.3,4s0.4,3.1,1.3,4.1c0.8,1,2,1.4,3.3,1.4
			c1.1,0,1.9-0.2,2.6-0.7c0.7-0.5,1.2-1.2,1.5-2.1h2.6c-0.4,1.5-1.2,2.7-2.3,3.6c-1.2,0.9-2.6,1.3-4.4,1.3c-1.4,0-2.6-0.3-3.7-0.9
			c-1.1-0.6-1.9-1.5-2.5-2.6s-0.9-2.5-0.9-4C133.4,25.4,133.7,24.1,134.3,23z"/>
		<path class="st0" d="M153.3,21.7v8.6c0,0.7,0.1,1.2,0.5,1.5c0.3,0.3,0.8,0.4,1.6,0.4h1.8v2H155c-1.3,0-2.3-0.3-3-0.9
			c-0.7-0.6-1-1.6-1-3v-8.6h-1.9v-2h1.9V16h2.4v3.7h3.8v2H153.3z"/>
		<path class="st0" d="M160.1,16.8c-0.3-0.3-0.5-0.7-0.5-1.2c0-0.5,0.2-0.8,0.5-1.2c0.3-0.3,0.7-0.5,1.2-0.5c0.4,0,0.8,0.2,1.1,0.5
			s0.5,0.7,0.5,1.2c0,0.5-0.2,0.8-0.5,1.2c-0.3,0.3-0.7,0.5-1.1,0.5C160.8,17.3,160.4,17.2,160.1,16.8z M162.4,19.7v14.5H160V19.7
			H162.4z"/>
		<path class="st0" d="M169.2,33.5c-1.1-0.6-2-1.5-2.6-2.6s-0.9-2.5-0.9-4s0.3-2.8,1-3.9c0.6-1.1,1.5-2,2.6-2.6s2.4-0.9,3.7-0.9
			c1.4,0,2.6,0.3,3.7,0.9c1.1,0.6,2,1.5,2.6,2.6s1,2.4,1,3.9s-0.3,2.8-1,4c-0.7,1.1-1.6,2-2.7,2.6c-1.1,0.6-2.4,0.9-3.8,0.9
			C171.5,34.4,170.3,34.1,169.2,33.5z M175.3,31.7c0.8-0.4,1.4-1,1.8-1.8c0.5-0.8,0.7-1.8,0.7-3s-0.2-2.2-0.7-3s-1.1-1.4-1.8-1.8
			s-1.5-0.6-2.4-0.6s-1.7,0.2-2.4,0.6s-1.3,1-1.8,1.8c-0.4,0.8-0.7,1.8-0.7,3s0.2,2.2,0.6,3c0.4,0.8,1,1.4,1.7,1.8
			c0.7,0.4,1.5,0.6,2.4,0.6C173.7,32.3,174.6,32.1,175.3,31.7z"/>
		<path class="st0" d="M194.9,21c1.1,1.1,1.6,2.6,1.6,4.6v8.6h-2.4V26c0-1.4-0.4-2.6-1.1-3.3c-0.7-0.8-1.7-1.2-3-1.2s-2.3,0.4-3,1.2
			c-0.8,0.8-1.1,2-1.1,3.5v8h-2.4V19.7h2.4v2.1c0.5-0.7,1.1-1.3,1.9-1.7c0.8-0.4,1.7-0.6,2.7-0.6C192.3,19.4,193.8,20,194.9,21z"/>
	</g>
</g>
</svg>
