<svg width="40" height="40" viewBox="0 0 40 40" fill="none" xmlns="http://www.w3.org/2000/svg">
<g clip-path="url(#clip0_562_2971)">
<path opacity="0.2" d="M28.333 12.9168C28.1688 12.9174 28.0061 12.8853 27.8545 12.8224C27.7028 12.7594 27.5652 12.6669 27.4497 12.5502C27.2172 12.3149 27.0869 11.9976 27.0869 11.6668C27.0869 11.3361 27.2172 11.0187 27.4497 10.7835L30.8664 7.36684C27.5973 4.55488 23.3657 3.11935 19.0604 3.36185C14.7552 3.60435 10.7115 5.50601 7.77893 8.66729C4.84634 11.8286 3.25312 16.0034 3.33399 20.3147C3.41486 24.626 5.16353 28.7382 8.21261 31.7873C11.2617 34.8363 15.3738 36.585 19.6851 36.6659C23.9964 36.7467 28.1713 35.1535 31.3326 32.2209C34.4939 29.2884 36.3955 25.2447 36.638 20.9394C36.8805 16.6342 35.445 12.4026 32.633 9.13351L29.2164 12.5502C29.1008 12.6669 28.9632 12.7594 28.8116 12.8224C28.6599 12.8853 28.4972 12.9174 28.333 12.9168Z" fill="black"/>
<path d="M22.9163 19.7L21.2496 19.1167V15.4167H21.383C21.807 15.4353 22.2064 15.6211 22.4937 15.9334C22.7811 16.2458 22.933 16.6592 22.9163 17.0833C22.9163 17.4149 23.048 17.7328 23.2824 17.9672C23.5168 18.2016 23.8348 18.3333 24.1663 18.3333C24.4978 18.3333 24.8158 18.2016 25.0502 17.9672C25.2846 17.7328 25.4163 17.4149 25.4163 17.0833C25.4253 16.5448 25.3282 16.0098 25.1303 15.5089C24.9325 15.008 24.6378 14.551 24.2632 14.164C23.8887 13.7771 23.4415 13.4677 22.9472 13.2537C22.453 13.0397 21.9215 12.9251 21.383 12.9167H21.2496V12.5C21.2496 12.1685 21.1179 11.8505 20.8835 11.6161C20.6491 11.3817 20.3312 11.25 19.9996 11.25C19.6681 11.25 19.3502 11.3817 19.1157 11.6161C18.8813 11.8505 18.7496 12.1685 18.7496 12.5V12.9167H18.2496C17.26 12.9359 16.3184 13.3467 15.6311 14.059C14.9438 14.7713 14.5669 15.727 14.583 16.7167C14.5115 17.5146 14.7227 18.3123 15.1797 18.9704C15.6366 19.6284 16.3103 20.1049 17.083 20.3167L18.7496 20.9V24.6H18.6163C18.1923 24.5814 17.7929 24.3956 17.5056 24.0832C17.2182 23.7709 17.0663 23.3574 17.083 22.9333C17.0808 22.6025 16.9484 22.2858 16.7144 22.0519C16.4805 21.8179 16.1638 21.6855 15.833 21.6833C15.5021 21.6855 15.1854 21.8179 14.9515 22.0519C14.7175 22.2858 14.5852 22.6025 14.583 22.9333C14.5739 23.4718 14.6711 24.0068 14.869 24.5077C15.0668 25.0087 15.3614 25.4657 15.736 25.8526C16.1106 26.2396 16.5578 26.5489 17.052 26.763C17.5462 26.977 18.0778 27.0915 18.6163 27.1H18.7496V27.5167C18.7496 27.8482 18.8813 28.1661 19.1157 28.4005C19.3502 28.635 19.6681 28.7667 19.9996 28.7667C20.3312 28.7667 20.6491 28.635 20.8835 28.4005C21.1179 28.1661 21.2496 27.8482 21.2496 27.5167V27.1H21.7496C22.7393 27.0807 23.6809 26.6699 24.3682 25.9576C25.0555 25.2454 25.4324 24.2897 25.4163 23.3C25.4935 22.5011 25.2846 21.7006 24.8268 21.0413C24.3689 20.3821 23.6919 19.9067 22.9163 19.7ZM17.8996 17.9333C17.333 17.7333 17.083 17.6167 17.083 16.7C17.0683 16.3737 17.1824 16.0546 17.4006 15.8115C17.6187 15.5684 17.9236 15.4206 18.2496 15.4H18.7496V18.2167L17.8996 17.9333ZM21.7496 24.5833H21.2496V21.7667L22.0996 22.0667C22.6663 22.2667 22.9163 22.3833 22.9163 23.3C22.9278 23.6238 22.8121 23.9393 22.5942 24.1791C22.3762 24.4189 22.0731 24.564 21.7496 24.5833Z" fill="black"/>
<path d="M37.8167 2.84975C37.6849 2.54282 37.4403 2.29821 37.1334 2.16642C36.981 2.09981 36.8164 2.06575 36.6501 2.06642H29.9834C29.6526 2.0686 29.3359 2.201 29.1019 2.43495C28.868 2.66889 28.7356 2.98557 28.7334 3.31642C28.7356 3.64726 28.868 3.96394 29.1019 4.19789C29.3359 4.43183 29.6526 4.56423 29.9834 4.56642H33.6334L30.8501 7.34975C31.4799 7.89624 32.0702 8.4866 32.6167 9.11642L35.4001 6.33308V9.99975C35.4001 10.3313 35.5318 10.6492 35.7662 10.8836C36.0006 11.1181 36.3185 11.2497 36.6501 11.2497C36.9816 11.2497 37.2995 11.1181 37.5339 10.8836C37.7684 10.6492 37.9001 10.3313 37.9001 9.99975V3.33308C37.9128 3.16755 37.8842 3.00144 37.8167 2.84975Z" fill="black"/>
</g>
<defs>
<clipPath id="clip0_562_2971">
<rect width="40" height="40" fill="white"/>
</clipPath>
</defs>
</svg>
