<svg width="40" height="40" viewBox="0 0 40 40" fill="none" xmlns="http://www.w3.org/2000/svg">
<g clip-path="url(#clip0_562_2875)">
<path opacity="0.4" d="M20.0003 3.33325C17.9246 3.34058 15.9349 4.16351 14.4605 5.62456C12.9861 7.0856 12.145 9.06765 12.1188 11.1432C12.0926 13.2187 12.8832 15.2214 14.3202 16.7193C15.7572 18.2171 17.7254 19.0901 19.8003 19.1499C19.9219 19.1332 20.0453 19.1332 20.1669 19.1499H20.2836C22.3669 19.0917 24.343 18.2136 25.7826 16.7065C27.2221 15.1994 28.0087 13.1851 27.9713 11.1013C27.934 9.01755 27.0758 7.0327 25.5832 5.57813C24.0906 4.12356 22.0843 3.31683 20.0003 3.33325Z" fill="black"/>
<path d="M28.4666 23.5833C25.9076 22.0615 22.9855 21.2583 20.0083 21.2583C17.031 21.2583 14.1089 22.0615 11.5499 23.5833C10.5956 24.1339 9.7949 24.9153 9.22123 25.8559C8.64755 26.7965 8.3193 27.8661 8.2666 28.9666C8.31806 30.0609 8.64429 31.1247 9.21521 32.0597C9.78612 32.9947 10.5833 33.7709 11.5333 34.3166C14.0674 35.9056 17.0094 36.7222 19.9999 36.6666C22.9905 36.7222 25.9325 35.9056 28.4666 34.3166C29.418 33.7642 30.2156 32.9819 30.7863 32.0414C31.357 31.1009 31.6826 30.0322 31.7333 28.9333C31.6783 27.8398 31.3507 26.7774 30.7801 25.843C30.2095 24.9085 29.4142 24.1317 28.4666 23.5833Z" fill="black"/>
</g>
<defs>
<clipPath id="clip0_562_2875">
<rect width="40" height="40" fill="white"/>
</clipPath>
</defs>
</svg>
