<?xml version="1.0" encoding="utf-8"?>
<!-- Generator: Adobe Illustrator 28.1.0, SVG Export Plug-In . SVG Version: 6.00 Build 0)  -->
<svg version="1.1" id="Layer_1" xmlns="http://www.w3.org/2000/svg" xmlns:xlink="http://www.w3.org/1999/xlink" x="0px" y="0px"
	 viewBox="0 0 32 32" style="enable-background:new 0 0 32 32;" xml:space="preserve">
<style type="text/css">
	.st0{fill:#EE3E38;}
</style>
<g>
	<path class="st0" d="M25.7,6.4c-0.2-0.2-0.4-0.4-0.6-0.6C22.7,3.4,19.5,2,16,2S9.3,3.4,6.9,5.8c-2.3,2.3-3.8,5.5-3.8,9.1
		c0,3.5,1.4,6.7,3.8,9.1c2.3,2.3,5.5,3.8,9.1,3.8c2.9,0,5.5-0.9,7.6-2.5l1.4,1.4l1.3,1.3l2,2l0,0c0,0,0.1,0.1,0.2,0.1
		c0.1,0,0.2-0.1,0.2-0.2v-0.1v-1.6V25v0V14.8C28.8,11.6,27.6,8.6,25.7,6.4z M25,14.8V15C25,14.9,25,14.9,25,14.8c0,0,0-0.1,0-0.1
		V14.8z M16,23.9C16,23.9,16,23.9,16,23.9c-2.5,0-4.8-1-6.4-2.6C8,19.6,7,17.3,7,14.8v0c0-2.5,1-4.8,2.6-6.4
		c1.6-1.6,3.9-2.6,6.4-2.6c0,0,0,0,0,0c2.5,0,4.8,1,6.4,2.6c1.6,1.6,2.6,3.9,2.6,6.4v0c0,1.7-0.5,3.3-1.3,4.6c0,0,0,0,0,0
		c0,0.1-0.1,0.1-0.2,0.1c-0.1,0-0.1,0-0.2-0.1l0,0l-0.6-0.6l0,0l0,0l0,0l-1.1-1.1c0,0-0.1-0.1-0.2-0.1c-0.1,0-0.1,0-0.2,0.1l0,0
		l-1.1,1.1l0,0l-0.1,0.1L20,19l0,0l-1.1,1.1l0,0c0,0-0.1,0.1-0.1,0.2c0,0.1,0,0.1,0.1,0.2l0,0l1.2,1.2l0.6,0.6c0,0,0.1,0.1,0.1,0.2
		c0,0.1-0.1,0.2-0.1,0.2l0,0C19.3,23.4,17.7,23.9,16,23.9z M25,23.9L25,23.9L25,23.9C25.1,23.9,25.1,23.9,25,23.9z"/>
	<circle class="st0" cx="16" cy="14.8" r="2.8"/>
</g>
</svg>
