<svg width="16" height="16" viewBox="0 0 16 16" fill="none" xmlns="http://www.w3.org/2000/svg">
<path d="M7.62865 15.2559C3.42359 15.2559 0 11.8326 0 7.62794C0 3.42327 3.42359 0 7.62865 0C11.8337 0 15.2573 3.42327 15.2573 7.62794C15.2573 11.8326 11.8337 15.2559 7.62865 15.2559ZM7.62865 1.11628C4.03388 1.11628 1.11639 4.04095 1.11639 7.62794C1.11639 11.2149 4.03388 14.1396 7.62865 14.1396C11.2234 14.1396 14.1409 11.2149 14.1409 7.62794C14.1409 4.04095 11.2234 1.11628 7.62865 1.11628Z" fill="#56586F"/>
<path d="M15.4439 15.9998C15.3025 15.9998 15.1611 15.9477 15.0494 15.8361L13.5609 14.3477C13.3451 14.1319 13.3451 13.7746 13.5609 13.5588C13.7768 13.343 14.134 13.343 14.3498 13.5588L15.8384 15.0472C16.0542 15.263 16.0542 15.6202 15.8384 15.8361C15.7267 15.9477 15.5853 15.9998 15.4439 15.9998Z" fill="#56586F"/>
</svg>
