<svg xmlns="http://www.w3.org/2000/svg" width="7" height="7" viewBox="0 0 7 7" fill="none">
<path d="M1.76458 1.74999C1.90876 1.74708 2.04883 1.70149 2.16709 1.61897C2.28535 1.53646 2.3765 1.42073 2.42899 1.28642C2.48149 1.15211 2.49298 1.00526 2.46202 0.864415C2.43106 0.723575 2.35903 0.595078 2.25504 0.495171C2.15106 0.395263 2.01978 0.328431 1.87782 0.303125C1.73585 0.277819 1.58957 0.295175 1.45747 0.352999C1.32537 0.410823 1.21338 0.506518 1.13566 0.627985C1.05794 0.749452 1.01798 0.891236 1.02083 1.03541C1.02273 1.13117 1.04347 1.22562 1.08188 1.31336C1.12029 1.40111 1.1756 1.48042 1.24467 1.54678C1.31374 1.61314 1.3952 1.66524 1.48441 1.70011C1.57362 1.73498 1.66882 1.75193 1.76458 1.74999Z" fill="black"/>
<path d="M1.06457 4.34582C0.961028 4.23507 0.903427 4.08911 0.903427 3.93749C0.903427 3.78587 0.961028 3.63991 1.06457 3.52916L2.01249 2.59582C2.09039 2.51147 2.18521 2.44449 2.29075 2.39926C2.39629 2.35403 2.51018 2.33156 2.62499 2.33332C2.78541 2.33332 2.65416 2.04166 2.33332 2.04166H1.16666C0.934592 2.04166 0.712032 2.13384 0.547938 2.29794C0.383844 2.46203 0.291656 2.68459 0.291656 2.91666V4.81249C0.291656 4.92852 0.33775 5.0398 0.419797 5.12185C0.501844 5.2039 0.613124 5.24999 0.729156 5.24999H0.87499V6.27082C0.87499 6.38686 0.921083 6.49813 1.00313 6.58018C1.08518 6.66223 1.19646 6.70832 1.31249 6.70832H2.18749C2.30352 6.70832 2.4148 6.66223 2.49685 6.58018C2.5789 6.49813 2.62499 6.38686 2.62499 6.27082V5.54166C2.51018 5.54342 2.39629 5.52095 2.29075 5.47572C2.18521 5.43049 2.09039 5.36351 2.01249 5.27916L1.06457 4.34582Z" fill="black"/>
<path d="M5.83332 2.04166H4.66665C4.34582 2.04166 4.21457 2.33332 4.37498 2.33332C4.48979 2.33156 4.60369 2.35403 4.70923 2.39926C4.81477 2.44449 4.90958 2.51147 4.98748 2.59582L5.9354 3.52916C6.03895 3.63991 6.09655 3.78587 6.09655 3.93749C6.09655 4.08911 6.03895 4.23507 5.9354 4.34582L4.98748 5.27916C4.90958 5.36351 4.81477 5.43049 4.70923 5.47572C4.60369 5.52095 4.48979 5.54342 4.37498 5.54166V6.27082C4.37498 6.38686 4.42108 6.49813 4.50312 6.58018C4.58517 6.66223 4.69645 6.70832 4.81248 6.70832H5.68748C5.80352 6.70832 5.9148 6.66223 5.99684 6.58018C6.07889 6.49813 6.12498 6.38686 6.12498 6.27082V5.24999H6.27082C6.38685 5.24999 6.49813 5.2039 6.58018 5.12185C6.66222 5.0398 6.70832 4.92852 6.70832 4.81249V2.91666C6.70832 2.68459 6.61613 2.46203 6.45204 2.29794C6.28794 2.13384 6.06538 2.04166 5.83332 2.04166Z" fill="black"/>
<path d="M5.26458 1.74999C5.40876 1.74708 5.54883 1.70149 5.66709 1.61897C5.78535 1.53646 5.8765 1.42073 5.92899 1.28642C5.98149 1.15211 5.99298 1.00526 5.96202 0.864415C5.93106 0.723575 5.85903 0.595078 5.75504 0.495171C5.65106 0.395263 5.51978 0.328431 5.37782 0.303125C5.23585 0.277819 5.08957 0.295175 4.95747 0.352999C4.82537 0.410823 4.71338 0.506518 4.63566 0.627985C4.55794 0.749452 4.51798 0.891236 4.52083 1.03541C4.52273 1.13117 4.54347 1.22562 4.58188 1.31336C4.62029 1.40111 4.6756 1.48042 4.74467 1.54678C4.81374 1.61314 4.8952 1.66524 4.98441 1.70011C5.07362 1.73498 5.16882 1.75193 5.26458 1.74999Z" fill="black"/>
<path d="M4.57915 4.87082L5.51249 3.93749L4.57915 3.00416C4.5532 2.97587 4.52165 2.95328 4.4865 2.93783C4.45135 2.92238 4.41338 2.9144 4.37499 2.9144C4.33659 2.9144 4.29862 2.92238 4.26348 2.93783C4.22833 2.95328 4.19678 2.97587 4.17082 3.00416C4.14253 3.03011 4.11995 3.06166 4.10449 3.09681C4.08904 3.13196 4.08106 3.16993 4.08106 3.20832C4.08106 3.24671 4.08904 3.28469 4.10449 3.31983C4.11995 3.35498 4.14253 3.38653 4.17082 3.41249L4.40415 3.64582H2.59582L2.82915 3.41249C2.85744 3.38653 2.88003 3.35498 2.89548 3.31983C2.91093 3.28469 2.91891 3.24671 2.91891 3.20832C2.91891 3.16993 2.91093 3.13196 2.89548 3.09681C2.88003 3.06166 2.85744 3.03011 2.82915 3.00416C2.8032 2.97587 2.77165 2.95328 2.7365 2.93783C2.70135 2.92238 2.66338 2.9144 2.62499 2.9144C2.5866 2.9144 2.54862 2.92238 2.51348 2.93783C2.47833 2.95328 2.44678 2.97587 2.42082 3.00416L1.48749 3.93749L2.42082 4.87082C2.44678 4.89911 2.47833 4.9217 2.51348 4.93715C2.54862 4.9526 2.5866 4.96058 2.62499 4.96058C2.66338 4.96058 2.70135 4.9526 2.7365 4.93715C2.77165 4.9217 2.8032 4.89911 2.82915 4.87082C2.85744 4.84487 2.88003 4.81331 2.89548 4.77817C2.91093 4.74302 2.91891 4.70505 2.91891 4.66666C2.91891 4.62826 2.91093 4.59029 2.89548 4.55514C2.88003 4.52 2.85744 4.48844 2.82915 4.46249L2.59582 4.22916H4.40415L4.17082 4.46249C4.14253 4.48844 4.11995 4.52 4.10449 4.55514C4.08904 4.59029 4.08106 4.62826 4.08106 4.66666C4.08106 4.70505 4.08904 4.74302 4.10449 4.77817C4.11995 4.81331 4.14253 4.84487 4.17082 4.87082C4.19678 4.89911 4.22833 4.9217 4.26348 4.93715C4.29862 4.9526 4.33659 4.96058 4.37499 4.96058C4.41338 4.96058 4.45135 4.9526 4.4865 4.93715C4.52165 4.9217 4.5532 4.89911 4.57915 4.87082Z" fill="black"/>
</svg>