<svg width="40" height="40" viewBox="0 0 40 40" fill="none" xmlns="http://www.w3.org/2000/svg">
<g clip-path="url(#clip0_562_2989)">
<path d="M28.3337 11.6668C28.3337 13.315 27.8449 14.9262 26.9292 16.2966C26.0136 17.667 24.7121 18.7351 23.1894 19.3658C21.6666 19.9966 19.9911 20.1616 18.3746 19.84C16.7581 19.5185 15.2732 18.7248 14.1078 17.5594C12.9423 16.3939 12.1487 14.9091 11.8271 13.2926C11.5056 11.6761 11.6706 10.0005 12.3013 8.4778C12.9321 6.95508 14.0002 5.65359 15.3706 4.73792C16.741 3.82224 18.3522 3.3335 20.0003 3.3335C22.2105 3.3335 24.3301 4.21147 25.8929 5.77427C27.4557 7.33708 28.3337 9.45669 28.3337 11.6668Z" fill="black"/>
<path opacity="0.4" d="M19.9996 24.1665C11.6496 24.1665 4.84961 29.7665 4.84961 36.6665C4.84961 36.8875 4.93741 37.0995 5.09369 37.2558C5.24997 37.412 5.46193 37.4998 5.68294 37.4998H34.3163C34.5373 37.4998 34.7493 37.412 34.9055 37.2558C35.0618 37.0995 35.1496 36.8875 35.1496 36.6665C35.1496 29.7665 28.3496 24.1665 19.9996 24.1665Z" fill="black"/>
<path d="M35.7167 24.5667C35.5062 24.2725 35.2285 24.0328 34.9068 23.8674C34.585 23.702 34.2285 23.6157 33.8667 23.6157C33.505 23.6157 33.1484 23.702 32.8267 23.8674C32.5049 24.0328 32.2273 24.2725 32.0167 24.5667L26.1184 30.4667C25.8652 30.7427 25.6923 31.0827 25.6184 31.45L25.3017 33.7C25.2621 33.8745 25.2673 34.0562 25.3169 34.2281C25.3665 34.4 25.4588 34.5565 25.5854 34.683C25.7119 34.8096 25.8684 34.9019 26.0403 34.9515C26.2122 35.0011 26.3939 35.0063 26.5684 34.9667L28.8184 34.65C29.1869 34.5798 29.5279 34.4064 29.8017 34.15L35.7017 28.25C35.9986 28.0439 36.2415 27.7692 36.4097 27.4493C36.5779 27.1294 36.6664 26.7737 36.6679 26.4122C36.6694 26.0508 36.5837 25.6944 36.4181 25.3731C36.2525 25.0518 36.012 24.7752 35.7167 24.5667Z" fill="black"/>
</g>
<defs>
<clipPath id="clip0_562_2989">
<rect width="40" height="40" fill="white"/>
</clipPath>
</defs>
</svg>
