<svg width="16" height="16" viewBox="0 0 16 16" fill="none" xmlns="http://www.w3.org/2000/svg">
<g id="vuesax-linear-element-equal 6" clip-path="url(#clip0_2893_11281)">
<g id="vuesax/linear/element-equal">
<g id="element-equal">
<path id="Vector" d="M14.6667 5.51398V2.82065C14.6667 1.76065 14.24 1.33398 13.18 1.33398H10.4867C9.42667 1.33398 9 1.76065 9 2.82065V5.51398C9 6.57398 9.42667 7.00065 10.4867 7.00065H13.18C14.24 7.00065 14.6667 6.57398 14.6667 5.51398Z" stroke="#EE3E38" stroke-linecap="round" stroke-linejoin="round"/>
<path id="Vector_2" d="M7.00016 5.68065V2.65398C7.00016 1.71398 6.5735 1.33398 5.5135 1.33398H2.82016C1.76016 1.33398 1.3335 1.71398 1.3335 2.65398V5.67398C1.3335 6.62065 1.76016 6.99398 2.82016 6.99398H5.5135C6.5735 7.00065 7.00016 6.62065 7.00016 5.68065Z" stroke="#EE3E38" stroke-linecap="round" stroke-linejoin="round"/>
<path id="Vector_3" d="M7.00016 13.18V10.4867C7.00016 9.42667 6.5735 9 5.5135 9H2.82016C1.76016 9 1.3335 9.42667 1.3335 10.4867V13.18C1.3335 14.24 1.76016 14.6667 2.82016 14.6667H5.5135C6.5735 14.6667 7.00016 14.24 7.00016 13.18Z" stroke="#EE3E38" stroke-linecap="round" stroke-linejoin="round"/>
<path id="Vector_4" d="M10 10.334H14" stroke="#EE3E38" stroke-linecap="round"/>
<path id="Vector_5" d="M10 13H14" stroke="#EE3E38" stroke-linecap="round"/>
</g>
</g>
</g>
<defs>
<clipPath id="clip0_2893_11281">
<rect width="16" height="16" fill="white"/>
</clipPath>
</defs>
</svg>
