<svg width="16" height="16" viewBox="0 0 16 16" fill="none" xmlns="http://www.w3.org/2000/svg">
<path d="M9.51327 7.27958C9.51327 7.65009 9.4034 8.01228 9.19756 8.32035C8.99171 8.62842 8.69914 8.86853 8.35683 9.01032C8.01452 9.15211 7.63786 9.1892 7.27447 9.11692C6.91108 9.04464 6.57728 8.86622 6.31529 8.60423C6.0533 8.34224 5.87488 8.00844 5.8026 7.64505C5.73031 7.28166 5.76741 6.905 5.9092 6.56269C6.05099 6.22038 6.2911 5.92781 6.59917 5.72196C6.90724 5.51612 7.26943 5.40625 7.63994 5.40625C8.13677 5.40625 8.61326 5.60362 8.96458 5.95494C9.3159 6.30625 9.51327 6.78274 9.51327 7.27958Z" stroke="white" stroke-linecap="round" stroke-linejoin="round"/>
<path d="M11.1002 13.4665C11.1002 11.9132 9.55351 10.6465 7.64018 10.6465C5.72684 10.6465 4.18018 11.9065 4.18018 13.4665" stroke="white" stroke-linecap="round" stroke-linejoin="round"/>
<path d="M14.0002 8.33336C13.9959 9.68835 13.5558 11.006 12.7449 12.0916C11.934 13.1771 10.7953 13.973 9.49721 14.3615C8.19912 14.7501 6.81046 14.7107 5.53649 14.2492C4.26252 13.7876 3.17083 12.9285 2.42279 11.7987C1.67475 10.6689 1.31005 9.32839 1.38259 7.97534C1.45513 6.62229 1.96107 5.32848 2.82562 4.28514C3.69017 3.24179 4.86746 2.50428 6.18347 2.18162C7.49949 1.85895 8.8844 1.96825 10.1335 2.49336C10.045 2.76457 10 3.04808 10.0002 3.33336C9.99922 3.81813 10.1331 4.29362 10.3868 4.70669C10.5219 4.93494 10.693 5.13982 10.8935 5.31336C11.3774 5.75677 12.0105 6.00189 12.6668 6.00002C12.9506 6.00183 13.2326 5.95446 13.5002 5.86002C13.8299 6.64293 13.9999 7.48384 14.0002 8.33336Z" stroke="white" stroke-linecap="round" stroke-linejoin="round"/>
<path d="M15.3333 3.33368C15.3339 3.54296 15.307 3.7514 15.2533 3.95368C15.1931 4.21991 15.0895 4.47442 14.9467 4.70702C14.6222 5.25583 14.1073 5.66628 13.5 5.86035C13.2324 5.95478 12.9504 6.00215 12.6667 6.00035C12.0103 6.00221 11.3773 5.75709 10.8933 5.31368C10.6928 5.14014 10.5217 4.93527 10.3867 4.70702C10.1329 4.29395 9.99906 3.81846 10 3.33368C9.99984 3.0484 10.0448 2.76489 10.1333 2.49368C10.2591 2.11066 10.4712 1.76167 10.7533 1.47368C11.0021 1.21811 11.2996 1.01503 11.6283 0.876471C11.9569 0.737913 12.31 0.666689 12.6667 0.667016C13.0408 0.665437 13.4109 0.743714 13.7524 0.896619C14.0938 1.04952 14.3987 1.27353 14.6467 1.55368C15.0881 2.04149 15.3328 2.67578 15.3333 3.33368Z" stroke="white" stroke-linecap="round" stroke-linejoin="round"/>
<path d="M13.66 3.32031H11.6733" stroke="white" stroke-linecap="round" stroke-linejoin="round"/>
<path d="M12.6665 2.34668V4.34001" stroke="white" stroke-linecap="round" stroke-linejoin="round"/>
</svg>
