<svg width="24" height="24" viewBox="0 0 24 24" fill="none" xmlns="http://www.w3.org/2000/svg">
<g clip-path="url(#clip0_562_3013)">
<path d="M19.7598 4.65001C19.5479 4.55436 19.3268 4.48064 19.0998 4.43001C18.6058 4.28758 18.094 4.21686 17.5798 4.22001H14.0298L12.7298 2.49001C12.6085 2.31997 12.4783 2.15641 12.3398 2.00001H15.7198C16.5785 1.99865 17.4188 2.24892 18.1368 2.71988C18.8548 3.19085 19.419 3.86186 19.7598 4.65001Z" fill="black"/>
<path d="M20.14 6.54C19.7042 6.22554 19.2119 5.99805 18.69 5.87C18.3285 5.7698 17.9551 5.71934 17.58 5.72H13.86C13.28 5.72 13.24 5.67 12.93 5.26L11.53 3.4C11.25 2.92196 10.8375 2.5353 10.3423 2.28683C9.84716 2.03837 9.2906 1.93874 8.74 2H6.42C5.24782 2.00027 4.12373 2.46603 3.29488 3.29488C2.46603 4.12374 2.00027 5.24783 2 6.42L2 17.58C2.00027 18.7522 2.46603 19.8763 3.29488 20.7051C4.12373 21.534 5.24782 21.9997 6.42 22H17.58C18.7522 21.9997 19.8763 21.534 20.7051 20.7051C21.534 19.8763 21.9997 18.7522 22 17.58V10.14C22.0019 9.43467 21.8339 8.73926 21.5101 8.11262C21.1863 7.48598 20.7164 6.94656 20.14 6.54ZM14.39 16.34H9.6C9.41435 16.34 9.2363 16.2663 9.10503 16.135C8.97375 16.0037 8.9 15.8257 8.9 15.64C8.9 15.4544 8.97375 15.2763 9.10503 15.145C9.2363 15.0138 9.41435 14.94 9.6 14.94H14.39C14.5757 14.94 14.7537 15.0138 14.885 15.145C15.0162 15.2763 15.09 15.4544 15.09 15.64C15.09 15.8257 15.0162 16.0037 14.885 16.135C14.7537 16.2663 14.5757 16.34 14.39 16.34Z" fill="black"/>
</g>
<defs>
<clipPath id="clip0_562_3013">
<rect width="24" height="24" fill="white"/>
</clipPath>
</defs>
</svg>
