<svg width="24" height="24" viewBox="0 0 24 24" fill="none" xmlns="http://www.w3.org/2000/svg">
<g id="vuesax-bold-profile-2user 1" clip-path="url(#clip0_957_6154)">
<g id="vuesax/bold/profile-2user">
<g id="profile-2user">
<path id="Vector" d="M8.99976 2.00015C7.75435 2.00454 6.56056 2.4983 5.67591 3.37493C4.79126 4.25155 4.28663 5.44079 4.27089 6.68611C4.25514 7.93143 4.72953 9.13305 5.59174 10.0318C6.45394 10.9305 7.63485 11.4543 8.87976 11.4901C8.95275 11.4801 9.02677 11.4801 9.09976 11.4901H9.16976C10.4197 11.4552 11.6054 10.9284 12.4691 10.0241C13.3329 9.11986 13.8048 7.91127 13.7824 6.661C13.76 5.41072 13.2451 4.21981 12.3495 3.34707C11.454 2.47433 10.2502 1.99029 8.99976 2.00015Z" fill="#292D32"/>
<path id="Vector_2" d="M14.08 14.1499C12.5446 13.2368 10.7913 12.7549 9.00496 12.7549C7.21861 12.7549 5.46534 13.2368 3.92996 14.1499C3.35738 14.4802 2.87694 14.9491 2.53274 15.5134C2.18853 16.0778 1.99158 16.7196 1.95996 17.3799C1.99084 18.0365 2.18658 18.6747 2.52912 19.2357C2.87167 19.7967 3.35 20.2624 3.91996 20.5899C5.44041 21.5433 7.20562 22.0332 8.99996 21.9999C10.7943 22.0332 12.5595 21.5433 14.08 20.5899C14.6508 20.2584 15.1294 19.7891 15.4718 19.2248C15.8142 18.6605 16.0096 18.0192 16.04 17.3599C16.007 16.7038 15.8104 16.0664 15.4681 15.5057C15.1257 14.945 14.6485 14.4789 14.08 14.1499Z" fill="#292D32"/>
<path id="Vector_3" d="M19.9904 7.34016C20.0728 8.26528 19.7923 9.18619 19.2082 9.90834C18.6242 10.6305 17.7822 11.0973 16.8604 11.2102H16.8104C16.7529 11.2063 16.6953 11.2131 16.6404 11.2302C15.7218 11.2882 14.816 10.9911 14.1104 10.4002C14.6377 9.92626 15.0476 9.33631 15.308 8.67685C15.5683 8.01739 15.6718 7.30647 15.6104 6.60016C15.5417 5.82018 15.2768 5.07024 14.8404 4.42016C15.3643 4.16475 15.9425 4.04074 16.5251 4.05886C17.1077 4.07699 17.6771 4.23669 18.1842 4.52418C18.6912 4.81167 19.1206 5.2183 19.4353 5.70892C19.75 6.19955 19.9405 6.75942 19.9904 7.34016Z" fill="#292D32"/>
<path id="Vector_4" d="M21.9902 16.5898C21.9254 17.1014 21.7317 17.5881 21.4274 18.0043C21.123 18.4206 20.718 18.7528 20.2502 18.9698C19.1672 19.5285 17.958 19.7972 16.7402 19.7498C17.4264 19.1592 17.8626 18.3299 17.9602 17.4298C17.9865 16.7717 17.8475 16.1176 17.5557 15.5271C17.264 14.9366 16.8289 14.4287 16.2902 14.0498C15.5956 13.5099 14.8191 13.0846 13.9902 12.7898C15.123 12.4674 16.314 12.4051 17.4742 12.6077C18.6344 12.8103 19.7338 13.2725 20.6902 13.9598C21.1114 14.2528 21.4514 14.6476 21.6787 15.1075C21.9061 15.5674 22.0132 16.0773 21.9902 16.5898Z" fill="#292D32"/>
</g>
</g>
</g>
<defs>
<clipPath id="clip0_957_6154">
<rect width="24" height="24" fill="white"/>
</clipPath>
</defs>
</svg>
